<?xml version="1.0" encoding="UTF-8"?>
<svg width="1000px" height="280px" viewBox="0 0 1000 280" version="1.1" xmlns="http://www.w3.org/2000/svg" xmlns:xlink="http://www.w3.org/1999/xlink">
    <title>grey备份</title>
    <defs>
        <path d="M108.92148,4.618065 C125.287806,20.9659467 125.287806,47.4710999 108.92148,63.8189816 L64.842,107.312 L12.2747446,56.3379578 C-2.94071868,41.1396419 -4.01065407,17.1623267 9.06493843,0.729350875 C10.9067976,2.04793558 12.6659481,3.53402063 14.3210974,5.18730458 L31.702493,22.5491118 L43.6615699,10.6029182 C45.5816694,12.9599774 47.4943467,15.4180154 49.3911755,17.8818105 L50.4597182,19.2719778 C55.4378785,25.7563635 60.2951644,32.1564899 64.8777358,36.7338968 L88.92385,14.4988485 L103.43929,-0.000706575106 C105.363533,1.35777043 107.198835,2.89736095 108.92148,4.618065 Z" id="path-1"></path>
    </defs>
    <g id="grey备份" stroke="none" stroke-width="1" fill="none" fill-rule="evenodd">
        <g id="light" transform="translate(50.000000, 67.000000)">
            <path d="M769.306245,98.6875 C763.965825,99.2006599 760.922884,98.0833333 758.527638,96.2708333 C753.029205,92.1101295 750.743088,92.0416667 748.347842,95.6666667 C745.952596,99.2916667 744.157069,104.125916 748.347842,108.354167 C753.138334,113.1875 760.324072,114.395833 771.102679,114.395833 C787.051805,114.395833 798.129508,103.321816 795.653951,90.8333333 C794.517074,85.0981162 787.27059,76.3333333 774.096737,74.5208333 C762.590148,72.9377208 763.632896,68.7037597 763.916941,67.2708333 C764.116101,66.2661307 766.190238,64.1020696 772.899114,64.8541667 C778.288417,65.4583333 780.084852,67.2708333 782.480098,69.0833333 C791.46227,61.8333333 786.515494,54.8986967 782.480098,52.1666667 C778.444701,49.4346367 773.066627,49.0193321 766.910999,49.75 C756.731203,50.9583333 748.946654,55.1875 747.150219,64.25 C745.353785,73.3125 748.745772,80.7632444 756.731203,84.7916667 C762.719318,87.8125 776.491983,88.4166667 777.689606,92.6458333 C778.887229,96.875 773.386722,98.2954077 769.306245,98.6875 Z M609.423575,28 C624.63644,28 636.968904,40.442753 636.968904,55.7916667 L636.968904,57 C636.968904,72.3489137 624.63644,84.7916667 609.423575,84.7916667 L592.656509,84.791 L592.656854,113.774648 C592.656854,114.451391 592.120659,115 591.459231,115 C580.680624,115 574.692509,105.809859 574.692509,98.4577465 L574.692509,36.5774648 C574.692509,31.8402618 578.445867,28 583.07587,28 L609.423575,28 Z M592.656509,67.874 L609.423575,67.875 C615.376436,67.875 620.202182,63.0060967 620.202182,57 L620.202182,55.7916667 C620.202182,49.78557 615.376436,44.9166667 609.423575,44.9166667 L592.656509,44.916 L592.656509,67.874 Z M646.549888,28 L654.334438,28 C659.295154,28 663.31661,32.0574195 663.31661,37.0625 C663.31661,58.8125 663.31661,77.3402778 663.31661,92.6458333 C663.31661,97.5301556 664.514233,101.708333 668.107102,105.333333 C670.699148,107.94856 674.506399,109.09662 675.891651,109.5625 C677.688086,110.166667 676.490463,111.979167 675.29284,112.583333 C675.29284,112.583333 671.699971,115 666.310667,115 C650.741569,115 645.352265,105.333333 645.352265,99.8958333 C645.352265,96.2708333 645.352265,72.7083333 645.352265,29.2083333 M680.083332,52.1666667 L687.867881,52.1666667 C692.828598,52.1666667 696.850054,56.2240861 696.850054,61.2291667 C696.850054,82.9791667 696.850054,73.1111111 696.850054,88.4166667 C696.850054,93.3009889 702.239357,97.4791667 707.628661,97.4791667 C713.017964,97.4791667 717.808456,93.8848265 717.808456,80.5625 C717.808456,71.8739819 717.808456,63.1854638 717.808456,54.4969458 C717.808456,53.2099682 718.851758,52.1666667 720.138735,52.1666667 C723.154448,52.1666667 726.170161,52.1666667 729.185875,52.1666667 C732.778743,52.1666667 735.843238,58.4774954 735.772801,60.625 C735.732058,61.87772 735.772801,67.875 735.772801,74.5208333 C735.772801,77.3750116 735.772801,86.6041667 735.772801,96.875 C735.772801,100.814982 737.569235,107.75 741.760916,110.770833 C742.452602,111.269313 741.69455,112.829362 741.162104,113.1875 C739.36567,114.395833 735.772801,114.395833 731.58112,114.395833 C724.652815,114.395833 719.167994,105.610774 719.006079,105.9375 C717.808456,108.354167 710.622718,114.395833 704.634603,114.395833 C684.275012,114.395833 678.885709,98.0833333 678.885709,92.6458333 C678.885709,89.0208333 678.885709,84.1875 678.885709,53.375 M532.176892,115 C550.366188,115 565.111525,100.122795 565.111525,81.7708333 C565.111525,63.4188713 550.366188,48.5416667 532.176892,48.5416667 C513.987597,48.5416667 499.24226,63.4188713 499.24226,81.7708333 C499.24226,100.122795 513.987597,115 532.176892,115 Z M532.176892,98.0833333 C523.247602,98.0833333 516.008982,90.7799783 516.008982,81.7708333 C516.008982,72.7616884 523.247602,65.4583333 532.176892,65.4583333 C541.106183,65.4583333 548.344803,72.7616884 548.344803,81.7708333 C548.344803,90.7799783 541.106183,98.0833333 532.176892,98.0833333 Z M457.924267,48.5416667 C476.113562,48.5416667 490.858899,63.4188713 490.858899,81.7708333 C490.858899,100.122795 476.113562,115 457.924267,115 C439.734972,115 424.989635,100.122795 424.989635,81.7708333 C424.989635,63.4188713 439.734972,48.5416667 457.924267,48.5416667 Z M336.964345,29.2083333 L353.132255,78.75 L367.503731,29.2083333 L381.875207,29.2083333 L396.845494,78.75 L412.414593,29.2083333 L430.378938,29.2083333 C416.40667,76.3333333 407.823705,104.125 404.630044,112.583333 C394.450248,112.583333 387.264511,104.729167 384.869265,96.875 C383.272434,91.6388889 379.879169,80.5625 374.689469,63.6458333 C366.705316,88.6180556 361.316012,104.930556 358.521559,112.583333 C348.341763,112.583333 341.156025,103.520833 338.760779,96.875 C337.163949,92.4444444 330.577022,69.8888889 319,29.2083333 L336.964345,29.2083333 Z M457.924267,65.4583333 C448.994977,65.4583333 441.756357,72.7616884 441.756357,81.7708333 C441.756357,90.7799783 448.994977,98.0833333 457.924267,98.0833333 C466.853557,98.0833333 474.092177,90.7799783 474.092177,81.7708333 C474.092177,72.7616884 466.853557,65.4583333 457.924267,65.4583333 Z" id="形状结合" fill="#D9D9D9" fill-rule="nonzero"></path>
            <g id="编组-2">
                <path d="M182.506268,30.1919581 L200.457546,12.2609113 C216.823872,-4.08697043 243.358929,-4.08697043 259.725255,12.2609113 C276.091582,28.608793 276.091582,55.1139462 259.725255,71.4618279 L183.169344,147 L105.857163,72.0310674 C89.4908366,55.6831857 89.4908366,29.1780326 105.857163,12.8301509 C122.223489,-3.51773084 142.093828,36.0791247 158.460154,52.4270064 L182.506268,30.1919581 Z" id="路径备份" fill="#D9D9D9"></path>
                <g id="路径" transform="translate(93.582418, 15.693110)">
                    <mask id="mask-2" fill="white">
                        <use xlink:href="#path-1"></use>
                    </mask>
                    <g id="形状结合"></g>
                    <path d="M91.3966129,6.09594696 C95.7249239,6.48224873 105.766706,34.0183295 93.4325605,51.9572186 C81.0984147,69.8961077 53.3251779,95.5220727 37.9374674,103.360435 C21.9734925,111.492342 13.4192516,95.8181826 12.2747446,56.3379578 C-4.09158153,39.9900761 -4.09158153,13.4849229 12.2747446,-2.8629588 C28.6410707,-19.2108405 48.5114096,20.3860151 64.8777358,36.7338968 C75.5538776,15.6835693 84.3935033,5.47091941 91.3966129,6.09594696 Z" id="路径备份" fill="#CACACA" mask="url(#mask-2)"></path>
                </g>
                <path d="M88.92385,30.1919581 L106.875128,12.2609113 C123.241454,-4.08697043 149.776511,-4.08697043 166.142837,12.2609113 C182.509163,28.608793 182.509163,55.1139462 166.142837,71.4618279 L89.586926,147 L12.2747446,72.0310674 C-4.09158153,55.6831857 -4.09158153,29.1780326 12.2747446,12.8301509 C28.6410707,-3.51773084 55.1761282,-3.51773084 71.5424544,12.8301509 L88.92385,30.1919581 Z" id="路径" fill="#D9D9D9"></path>
            </g>
        </g>
    </g>
</svg>